HIERARCHY
ROOT Hips
{
  OFFSET -125.086 92.215 135.881
  CHANNELS 6 Xposition Yposition Zposition Zrotation Xrotation Yrotation
  JOINT LeftUpLeg
  {
    OFFSET 8.64259 1.95398 -2.38835
    CHANNELS 3 Zrotation Xrotation Yrotation
    JOINT LeftLeg
    {
      OFFSET 43.7702 0 0
      CHANNELS 3 Zrotation Xrotation Yrotation
      JOINT LeftFoot
      {
        OFFSET 40.6238 0 0
        CHANNELS 3 Zrotation Xrotation Yrotation
        JOINT LeftToeBase
        {
          OFFSET 12.7242 0 0
          CHANNELS 3 Zrotation Xrotation Yrotation
          End Site
          {
            OFFSET 0 0 0
          }
        }
      }
    }
  }
  JOINT RightUpLeg
  {
    OFFSET -8.2249 1.95398 -2.59336
    CHANNELS 3 Zrotation Xrotation Yrotation
    JOINT RightLeg
    {
      OFFSET 43.5653 0 0
      CHANNELS 3 Zrotation Xrotation Yrotation
      JOINT RightFoot
      {
        OFFSET 40.6238 0 0
        CHANNELS 3 Zrotation Xrotation Yrotation
        JOINT RightToeBase
        {
          OFFSET 12.7242 0 0
          CHANNELS 3 Zrotation Xrotation Yrotation
          End Site
          {
            OFFSET 0 0 0
          }
        }
      }
    }
  }
  JOINT Spine
  {
    OFFSET 0.165834 0.87714 6.61349
    CHANNELS 3 Zrotation Xrotation Yrotation
    JOINT Spine1
    {
      OFFSET 7.38963 1.71661e-005 0
      CHANNELS 3 Zrotation Xrotation Yrotation
      JOINT Spine2
      {
        OFFSET 11.9445 1.14441e-005 0
        CHANNELS 3 Zrotation Xrotation Yrotation
        JOINT Spine3
        {
          OFFSET 14.7254 4.19617e-005 0
          CHANNELS 3 Zrotation Xrotation Yrotation
          JOINT Spine4
          {
            OFFSET 10.9679 0 0
            CHANNELS 3 Zrotation Xrotation Yrotation
            JOINT RightShoulder
            {
              OFFSET 2.46616 -1.6653 3.69651
              CHANNELS 3 Zrotation Xrotation Yrotation
              JOINT RightArm
              {
                OFFSET 13.0012 0 0
                CHANNELS 3 Zrotation Xrotation Yrotation
                JOINT RightForeArm
                {
                  OFFSET 28.7848 1.52588e-005 0
                  CHANNELS 3 Zrotation Xrotation Yrotation
                  JOINT RightHand
                  {
                    OFFSET 26.5688 1.52588e-005 0
                    CHANNELS 3 Zrotation Xrotation Yrotation
                    End Site
                    {
                      OFFSET 0 0 0
                    }
                  }
                }
              }
            }
            JOINT LeftShoulder
            {
              OFFSET 2.38034 -1.29275 -3.7523
              CHANNELS 3 Zrotation Xrotation Yrotation
              JOINT LeftArm
              {
                OFFSET 16.3182 6.10352e-005 0
                CHANNELS 3 Zrotation Xrotation Yrotation
                JOINT LeftForeArm
                {
                  OFFSET 27.0901 0 0
                  CHANNELS 3 Zrotation Xrotation Yrotation
                  JOINT LeftHand
                  {
                    OFFSET 24.5451 1.52588e-005 0
                    CHANNELS 3 Zrotation Xrotation Yrotation
                    End Site
                    {
                      OFFSET 0 0 0
                    }
                  }
                }
              }
            }
            JOINT Neck
            {
              OFFSET 5.0226 -0.0266342 0
              CHANNELS 3 Zrotation Xrotation Yrotation
              JOINT Head
              {
                OFFSET 6.69363 2.86102e-005 0
                CHANNELS 3 Zrotation Xrotation Yrotation
                End Site
                {
                  OFFSET 0 0 0
                }
              }
            }
          }
        }
      }
    }
  }
}
MOTION
Frames:	7
Frame Time:	0.0416667
-28.8597 95.1717 35.3095 98.9108 25.7458 90.2036 -178.718 -1.85615 86.289 -29.8517 24.9136 7.36085 68.4885 10.3679 11.8916 38.4105 -0.710498 -3.57982 176.836 18.2539 86.0358 -27.8063 -4.75028 -1.60529 55.5081 0.866889 17.3433 35.908 -0.863141 -7.11645 -0.508327 7.76764 -90.0942 11.3386 -1.0554 -0.0821051 -0.331952 -1.058 -0.0355759 -22.8702 -0.981898 -0.395527 -2.85753 -0.981925 -0.395538 111.083 -52.9737 -68.7853 31.4541 3.27262 -2.80466 -6.8254 -38.8775 -17.6155 -4.64024 -0.240693 0.976943 -73.6653 -45.2909 103.584 -38.7117 5.50827 -30.9303 23.1574 43.279 -38.6725 -5.21142 -0.00556799 -7.79753 -5.95195 4.63789 -9.39845 -28.1994 1.02767 20.2333 
-21.2198 95.0575 33.3823 97.5543 31.4159 88.757 -178.384 -5.88374 87.1118 -28.981 29.6096 8.39308 68.6719 11.1408 10.9878 41.5404 -1.07898 -2.52937 177.192 16.5941 83.6315 -6.49808 -3.36732 -2.96678 51.0841 3.22412 22.873 34.4023 -0.583088 -6.54602 -0.521745 7.62334 -89.9641 11.6282 -1.02096 0.177814 -0.0423642 -1.01217 0.222576 -22.5807 -1.02723 -0.137287 -2.56805 -1.0272 -0.137288 111.654 -53.2489 -67.9798 31.8104 4.16214 -1.50021 -6.47608 -39.526 -16.8935 -4.46949 -0.26454 1.94903 -73.9345 -44.9346 103.177 -37.4209 7.91808 -31.503 23.314 39.8542 -42.9231 -5.49151 0.0194106 -8.38347 -7.2924 3.28578 -9.00619 -27.4989 0.233597 17.6042 
-12.9876 93.9454 31.3751 97.624 34.7083 88.3808 -178.746 -8.43666 88.4215 -34.9504 30.806 11.4914 70.0494 11.3276 8.43049 46.5182 -1.45857 0.381451 177.207 18.1377 84.1858 -10.5204 -8.98255 -2.30023 50.0929 3.47896 23.3208 43.2171 -2.37375 -5.53213 -0.491462 7.66323 -90.1225 11.546 -1.03497 -0.138306 -0.124542 -1.04005 -0.0926184 -22.6624 -0.945562 -0.442988 -2.64977 -0.945562 -0.442995 111.383 -52.8492 -68.3164 31.4534 4.2953 -2.36487 -6.46432 -39.8392 -16.6526 -4.60313 -0.254929 1.5319 -72.8686 -46.6114 104.739 -38.0111 5.7948 -29.7861 24.0267 43.1016 -40.8043 -4.08307 -0.03632 -8.11271 -7.16618 3.51058 -7.92447 -26.8279 0.482915 17.6832 
-3.99699 93.4773 28.5498 98.1452 38.11 90.1277 179.541 -8.03016 93.0422 -44.6148 27.8489 13.6632 62.7107 5.54155 0.596234 56.5763 -2.55631 -1.09434 178.317 18.9093 87.6302 -23.676 -14.4951 -2.28181 50.7994 3.09312 15.9274 38.5391 -1.47809 -3.4075 -0.559661 7.62373 -90.559 11.6229 -1.37516 -0.970386 -0.04759 -1.41653 -0.908933 -22.5837 -1.01997 -1.3388 -2.57101 -1.01997 -1.33881 111.132 -52.5578 -68.6438 30.5159 4.11199 -3.70246 -5.40205 -38.8481 -15.657 -6.90918 -0.430656 2.1634 -72.6391 -47.253 105.039 -42.0928 -1.63429 -25.9531 20.7058 52.4626 -26.1291 -3.24181 -0.0701832 -6.98778 -7.16674 3.93978 -7.60113 -27.8083 0.468877 18.8377 
3.88572 93.02 25.3645 98.6959 43.399 90.0062 175.257 1.93416 93.1533 -63.0288 24.2716 11.8207 49.5841 -1.5082 -5.02112 58.0903 -2.37476 0.887901 176.251 18.2012 88.471 -35.2853 -11.9818 -0.842628 60.0093 0.718077 11.901 39.5927 -1.68008 -1.85777 -0.561839 7.59594 -90.8081 11.6706 -1.4965 -1.45443 -0.000204062 -1.55905 -1.38717 -22.5324 -0.990267 -1.83686 -2.51971 -0.990266 -1.83687 110.822 -51.5089 -68.9407 30.173 2.35758 -4.16579 -4.64465 -35.0186 -16.9243 -9.56018 -0.598061 2.19799 -73.6095 -46.4623 103.58 -47.3562 -10.4629 -23.293 12.4085 63.9328 -4.53066 -6.16322 -0.0130087 -6.71213 -5.38559 3.06384 -7.1119 -27.9307 -0.0706545 17.5068 
10.8794 93.4567 21.6828 100.699 46.0268 86.8225 176.009 12.8879 91.1218 -73.3132 14.7228 7.36129 51.2455 0.450761 -1.66944 54.5818 -2.18421 -0.0219832 175.752 12.8304 88.2411 -38.728 -10.2903 -1.48888 65.4936 -0.873149 10.5439 42.9443 -2.26354 -2.13788 -0.128724 7.82527 -90.8029 11.2175 -0.629698 -1.53786 -0.45415 -0.696754 -1.50868 -22.9822 -0.13847 -1.65599 -2.96956 -0.138461 -1.65598 110.108 -51.2132 -69.9824 28.8239 1.84472 -6.93098 -3.61633 -30.9105 -17.1662 -11.2032 -0.647149 1.5816 -73.4915 -47.0877 103.716 -46.5574 -15.0109 -20.0174 11.4203 73.0704 -1.45409 -10.1778 0.100485 -7.16287 -3.53379 1.18922 -7.16019 -26.0967 -1.09359 15.3407 
16.9041 94.4684 17.6925 100.355 47.4941 83.9625 179.93 20.1949 86.9305 -66.093 11.835 4.04744 57.0153 4.34693 1.9688 49.3912 -1.76135 0.197299 174.594 7.39863 85.745 -36.7233 -8.85139 -1.94589 67.933 -1.0243 12.3263 44.0743 -2.44654 -1.70114 0.225714 7.78807 -90.5746 11.2973 0.181628 -1.16085 -0.374211 0.13037 -1.16773 -22.9059 0.522096 -1.05263 -2.8932 0.522085 -1.05262 110.061 -50.3947 -69.9322 27.8756 1.24004 -10.6951 -3.48178 -30.8222 -17.2243 -10.4623 -0.610706 1.68455 -73.1456 -47.5752 104.217 -41.0401 -15.4191 -11.2568 15.7109 65.1053 -11.2572 -10.6925 0.172722 -8.01826 -2.84453 0.158599 -6.09136 -26.0976 -1.8009 13.3236 
